solid OpenSCAD_Model
  facet normal -1 0 0
    outer loop
      vertex -73 57 -37.045
      vertex -73 57 37.045
      vertex -73 63 -37.045
    endloop
  endfacet
  facet normal -1 0 0
    outer loop
      vertex -73 63 -37.045
      vertex -73 57 37.045
      vertex -73 63 37.045
    endloop
  endfacet
  facet normal 0 -1 0
    outer loop
      vertex -73 57 37.045
      vertex -73 57 -37.045
      vertex -64 57 -37.045
    endloop
  endfacet
  facet normal 0 -1 0
    outer loop
      vertex -64 57 37.045
      vertex -73 57 37.045
      vertex -64 57 -37.045
    endloop
  endfacet
  facet normal 0 0 -1
    outer loop
      vertex -73 57 -37.045
      vertex -73 63 -37.045
      vertex -64 57 -37.045
    endloop
  endfacet
  facet normal 0 0 -1
    outer loop
      vertex -64 57 -37.045
      vertex -73 63 -37.045
      vertex 73 63 -37.045
    endloop
  endfacet
  facet normal 0 0 -1
    outer loop
      vertex 64 57 -37.045
      vertex 73 63 -37.045
      vertex 73 57 -37.045
    endloop
  endfacet
  facet normal 0 0 -1
    outer loop
      vertex 6.06265 57.6823 -37.045
      vertex 73 63 -37.045
      vertex 64 57 -37.045
    endloop
  endfacet
  facet normal 0 0 -1
    outer loop
      vertex 17.923 -55.1613 -37.045
      vertex 64 -63 -37.045
      vertex 6.06265 -57.6823 -37.045
    endloop
  endfacet
  facet normal 0 0 -1
    outer loop
      vertex 56.7326 12.0589 -37.045
      vertex 64 57 -37.045
      vertex 58 0 -37.045
    endloop
  endfacet
  facet normal 0 0 -1
    outer loop
      vertex -56.7326 -12.0589 -37.045
      vertex -64 -63 -37.045
      vertex -58 0 -37.045
    endloop
  endfacet
  facet normal 0 0 -1
    outer loop
      vertex -52.9856 -23.5907 -37.045
      vertex -64 -63 -37.045
      vertex -56.7326 -12.0589 -37.045
    endloop
  endfacet
  facet normal 0 0 -1
    outer loop
      vertex -46.923 -34.0915 -37.045
      vertex -64 -63 -37.045
      vertex -52.9856 -23.5907 -37.045
    endloop
  endfacet
  facet normal 0 0 -1
    outer loop
      vertex -38.8096 -43.1024 -37.045
      vertex -64 -63 -37.045
      vertex -46.923 -34.0915 -37.045
    endloop
  endfacet
  facet normal 0 0 -1
    outer loop
      vertex -29 -50.2295 -37.045
      vertex -64 -63 -37.045
      vertex -38.8096 -43.1024 -37.045
    endloop
  endfacet
  facet normal 0 0 -1
    outer loop
      vertex -17.923 -55.1613 -37.045
      vertex -64 -63 -37.045
      vertex -29 -50.2295 -37.045
    endloop
  endfacet
  facet normal 0 0 -1
    outer loop
      vertex -6.06265 -57.6823 -37.045
      vertex -64 -63 -37.045
      vertex -17.923 -55.1613 -37.045
    endloop
  endfacet
  facet normal 0 0 -1
    outer loop
      vertex 64 -63 -37.045
      vertex -64 -63 -37.045
      vertex -6.06265 -57.6823 -37.045
    endloop
  endfacet
  facet normal 0 0 -1
    outer loop
      vertex 64 -63 -37.045
      vertex -6.06265 -57.6823 -37.045
      vertex 6.06265 -57.6823 -37.045
    endloop
  endfacet
  facet normal 0 0 -1
    outer loop
      vertex 29 -50.2295 -37.045
      vertex 64 -63 -37.045
      vertex 17.923 -55.1613 -37.045
    endloop
  endfacet
  facet normal 0 0 -1
    outer loop
      vertex 38.8096 -43.1024 -37.045
      vertex 64 -63 -37.045
      vertex 29 -50.2295 -37.045
    endloop
  endfacet
  facet normal 0 0 -1
    outer loop
      vertex 46.923 -34.0915 -37.045
      vertex 64 -63 -37.045
      vertex 38.8096 -43.1024 -37.045
    endloop
  endfacet
  facet normal 0 0 -1
    outer loop
      vertex 52.9856 -23.5907 -37.045
      vertex 64 -63 -37.045
      vertex 46.923 -34.0915 -37.045
    endloop
  endfacet
  facet normal 0 0 -1
    outer loop
      vertex 56.7326 -12.0589 -37.045
      vertex 64 -63 -37.045
      vertex 52.9856 -23.5907 -37.045
    endloop
  endfacet
  facet normal 0 0 -1
    outer loop
      vertex 64 57 -37.045
      vertex 64 -63 -37.045
      vertex 56.7326 -12.0589 -37.045
    endloop
  endfacet
  facet normal 0 0 -1
    outer loop
      vertex 64 57 -37.045
      vertex 56.7326 -12.0589 -37.045
      vertex 58 0 -37.045
    endloop
  endfacet
  facet normal 0 0 -1
    outer loop
      vertex 52.9856 23.5907 -37.045
      vertex 64 57 -37.045
      vertex 56.7326 12.0589 -37.045
    endloop
  endfacet
  facet normal 0 0 -1
    outer loop
      vertex 6.06265 57.6823 -37.045
      vertex 64 57 -37.045
      vertex 17.923 55.1613 -37.045
    endloop
  endfacet
  facet normal 0 0 -1
    outer loop
      vertex 64 57 -37.045
      vertex 52.9856 23.5907 -37.045
      vertex 46.923 34.0915 -37.045
    endloop
  endfacet
  facet normal 0 0 -1
    outer loop
      vertex 64 57 -37.045
      vertex 46.923 34.0915 -37.045
      vertex 38.8096 43.1024 -37.045
    endloop
  endfacet
  facet normal 0 0 -1
    outer loop
      vertex 64 57 -37.045
      vertex 38.8096 43.1024 -37.045
      vertex 29 50.2295 -37.045
    endloop
  endfacet
  facet normal 0 0 -1
    outer loop
      vertex 64 57 -37.045
      vertex 29 50.2295 -37.045
      vertex 17.923 55.1613 -37.045
    endloop
  endfacet
  facet normal 0 0 -1
    outer loop
      vertex -6.06265 57.6823 -37.045
      vertex 73 63 -37.045
      vertex 6.06265 57.6823 -37.045
    endloop
  endfacet
  facet normal 0 0 -1
    outer loop
      vertex -17.923 55.1613 -37.045
      vertex -64 57 -37.045
      vertex -6.06265 57.6823 -37.045
    endloop
  endfacet
  facet normal 0 0 -1
    outer loop
      vertex -64 57 -37.045
      vertex 73 63 -37.045
      vertex -6.06265 57.6823 -37.045
    endloop
  endfacet
  facet normal 0 0 -1
    outer loop
      vertex -29 50.2295 -37.045
      vertex -64 57 -37.045
      vertex -17.923 55.1613 -37.045
    endloop
  endfacet
  facet normal 0 0 -1
    outer loop
      vertex -38.8096 43.1024 -37.045
      vertex -64 57 -37.045
      vertex -29 50.2295 -37.045
    endloop
  endfacet
  facet normal 0 0 -1
    outer loop
      vertex -46.923 34.0915 -37.045
      vertex -64 57 -37.045
      vertex -38.8096 43.1024 -37.045
    endloop
  endfacet
  facet normal 0 0 -1
    outer loop
      vertex -64 57 -37.045
      vertex -46.923 34.0915 -37.045
      vertex -52.9856 23.5907 -37.045
    endloop
  endfacet
  facet normal 0 0 -1
    outer loop
      vertex -64 57 -37.045
      vertex -52.9856 23.5907 -37.045
      vertex -56.7326 12.0589 -37.045
    endloop
  endfacet
  facet normal 0 0 -1
    outer loop
      vertex -64 57 -37.045
      vertex -56.7326 12.0589 -37.045
      vertex -58 0 -37.045
    endloop
  endfacet
  facet normal 0 0 -1
    outer loop
      vertex -64 57 -37.045
      vertex -58 0 -37.045
      vertex -64 -63 -37.045
    endloop
  endfacet
  facet normal 0 1 0
    outer loop
      vertex -60.5 63 32.71
      vertex -73 63 37.045
      vertex 73 63 37.045
    endloop
  endfacet
  facet normal 0 1 0
    outer loop
      vertex 60.5 63 6
      vertex 51.25 63 0.67
      vertex -60.5 63 6
    endloop
  endfacet
  facet normal 0 1 0
    outer loop
      vertex 60.5 63 32.71
      vertex -60.5 63 32.71
      vertex 73 63 37.045
    endloop
  endfacet
  facet normal 0 1 0
    outer loop
      vertex -73 63 -37.045
      vertex -73 63 37.045
      vertex -60.5 63 6
    endloop
  endfacet
  facet normal 0 1 0
    outer loop
      vertex 51.25 63 0.67
      vertex 73 63 -37.045
      vertex 51.25 63 -32.21
    endloop
  endfacet
  facet normal 0 1 0
    outer loop
      vertex -51.25 63 0.67
      vertex -60.5 63 6
      vertex 51.25 63 0.67
    endloop
  endfacet
  facet normal 0 1 0
    outer loop
      vertex 73 63 -37.045
      vertex 60.5 63 6
      vertex 73 63 37.045
    endloop
  endfacet
  facet normal 0 1 0
    outer loop
      vertex 60.5 63 6
      vertex 60.5 63 32.71
      vertex 73 63 37.045
    endloop
  endfacet
  facet normal 0 1 0
    outer loop
      vertex -73 63 -37.045
      vertex -60.5 63 6
      vertex -51.25 63 0.67
    endloop
  endfacet
  facet normal 0 1 0
    outer loop
      vertex -73 63 -37.045
      vertex -51.25 63 0.67
      vertex -51.25 63 -32.21
    endloop
  endfacet
  facet normal 0 1 0
    outer loop
      vertex -73 63 -37.045
      vertex -51.25 63 -32.21
      vertex 73 63 -37.045
    endloop
  endfacet
  facet normal 0 1 0
    outer loop
      vertex -51.25 63 -32.21
      vertex 51.25 63 -32.21
      vertex 73 63 -37.045
    endloop
  endfacet
  facet normal 0 1 0
    outer loop
      vertex 73 63 -37.045
      vertex 51.25 63 0.67
      vertex 60.5 63 6
    endloop
  endfacet
  facet normal 0 1 0
    outer loop
      vertex -60.5 63 6
      vertex -73 63 37.045
      vertex -60.5 63 32.71
    endloop
  endfacet
  facet normal 0 0 1
    outer loop
      vertex -73 63 37.045
      vertex -73 57 37.045
      vertex -64 57 37.045
    endloop
  endfacet
  facet normal 0 0 1
    outer loop
      vertex -6.06265 57.6823 37.045
      vertex -73 63 37.045
      vertex -64 57 37.045
    endloop
  endfacet
  facet normal 0 0 1
    outer loop
      vertex -17.923 55.1613 37.045
      vertex -6.06265 57.6823 37.045
      vertex -64 57 37.045
    endloop
  endfacet
  facet normal 0 0 1
    outer loop
      vertex 64 57 37.045
      vertex 73 57 37.045
      vertex -73 63 37.045
    endloop
  endfacet
  facet normal 0 0 1
    outer loop
      vertex 73 57 37.045
      vertex 73 63 37.045
      vertex -73 63 37.045
    endloop
  endfacet
  facet normal 0 0 1
    outer loop
      vertex -64 -63 37.045
      vertex -56.7326 -12.0589 37.045
      vertex -64 57 37.045
    endloop
  endfacet
  facet normal 0 0 1
    outer loop
      vertex -56.7326 -12.0589 37.045
      vertex -58 0 37.045
      vertex -64 57 37.045
    endloop
  endfacet
  facet normal 0 0 1
    outer loop
      vertex -58 0 37.045
      vertex -56.7326 12.0589 37.045
      vertex -64 57 37.045
    endloop
  endfacet
  facet normal 0 0 1
    outer loop
      vertex -6.06265 -57.6823 37.045
      vertex -17.923 -55.1613 37.045
      vertex -64 -63 37.045
    endloop
  endfacet
  facet normal 0 0 1
    outer loop
      vertex -56.7326 12.0589 37.045
      vertex -52.9856 23.5907 37.045
      vertex -64 57 37.045
    endloop
  endfacet
  facet normal 0 0 1
    outer loop
      vertex -52.9856 23.5907 37.045
      vertex -46.923 34.0915 37.045
      vertex -64 57 37.045
    endloop
  endfacet
  facet normal 0 0 1
    outer loop
      vertex -38.8096 43.1024 37.045
      vertex -29 50.2295 37.045
      vertex -64 57 37.045
    endloop
  endfacet
  facet normal 0 0 1
    outer loop
      vertex -29 50.2295 37.045
      vertex -17.923 55.1613 37.045
      vertex -64 57 37.045
    endloop
  endfacet
  facet normal 0 0 1
    outer loop
      vertex 6.06265 57.6823 37.045
      vertex -73 63 37.045
      vertex -6.06265 57.6823 37.045
    endloop
  endfacet
  facet normal 0 0 1
    outer loop
      vertex 17.923 55.1613 37.045
      vertex 29 50.2295 37.045
      vertex 64 57 37.045
    endloop
  endfacet
  facet normal 0 0 1
    outer loop
      vertex 64 57 37.045
      vertex -73 63 37.045
      vertex 6.06265 57.6823 37.045
    endloop
  endfacet
  facet normal 0 0 1
    outer loop
      vertex 58 0 37.045
      vertex 56.7326 -12.0589 37.045
      vertex 64 -63 37.045
    endloop
  endfacet
  facet normal 0 0 1
    outer loop
      vertex 38.8096 43.1024 37.045
      vertex 64 57 37.045
      vertex 29 50.2295 37.045
    endloop
  endfacet
  facet normal 0 0 1
    outer loop
      vertex 46.923 34.0915 37.045
      vertex 64 57 37.045
      vertex 38.8096 43.1024 37.045
    endloop
  endfacet
  facet normal 0 0 1
    outer loop
      vertex 52.9856 -23.5907 37.045
      vertex 46.923 -34.0915 37.045
      vertex 64 -63 37.045
    endloop
  endfacet
  facet normal 0 0 1
    outer loop
      vertex 52.9856 23.5907 37.045
      vertex 64 57 37.045
      vertex 46.923 34.0915 37.045
    endloop
  endfacet
  facet normal 0 0 1
    outer loop
      vertex 56.7326 12.0589 37.045
      vertex 64 57 37.045
      vertex 52.9856 23.5907 37.045
    endloop
  endfacet
  facet normal 0 0 1
    outer loop
      vertex 58 0 37.045
      vertex 64 57 37.045
      vertex 56.7326 12.0589 37.045
    endloop
  endfacet
  facet normal 0 0 1
    outer loop
      vertex 56.7326 -12.0589 37.045
      vertex 52.9856 -23.5907 37.045
      vertex 64 -63 37.045
    endloop
  endfacet
  facet normal 0 0 1
    outer loop
      vertex 64 -63 37.045
      vertex 64 57 37.045
      vertex 58 0 37.045
    endloop
  endfacet
  facet normal 0 0 1
    outer loop
      vertex 46.923 -34.0915 37.045
      vertex 38.8096 -43.1024 37.045
      vertex 64 -63 37.045
    endloop
  endfacet
  facet normal 0 0 1
    outer loop
      vertex 17.923 -55.1613 37.045
      vertex 64 -63 37.045
      vertex 29 -50.2295 37.045
    endloop
  endfacet
  facet normal 0 0 1
    outer loop
      vertex 6.06265 -57.6823 37.045
      vertex 64 -63 37.045
      vertex 17.923 -55.1613 37.045
    endloop
  endfacet
  facet normal 0 0 1
    outer loop
      vertex -64 -63 37.045
      vertex 64 -63 37.045
      vertex 6.06265 -57.6823 37.045
    endloop
  endfacet
  facet normal 0 0 1
    outer loop
      vertex -64 -63 37.045
      vertex 6.06265 -57.6823 37.045
      vertex -6.06265 -57.6823 37.045
    endloop
  endfacet
  facet normal 0 0 1
    outer loop
      vertex -64 -63 37.045
      vertex -17.923 -55.1613 37.045
      vertex -29 -50.2295 37.045
    endloop
  endfacet
  facet normal 0 0 1
    outer loop
      vertex -64 -63 37.045
      vertex -29 -50.2295 37.045
      vertex -38.8096 -43.1024 37.045
    endloop
  endfacet
  facet normal 0 0 1
    outer loop
      vertex -64 -63 37.045
      vertex -38.8096 -43.1024 37.045
      vertex -46.923 -34.0915 37.045
    endloop
  endfacet
  facet normal 0 0 1
    outer loop
      vertex -64 -63 37.045
      vertex -52.9856 -23.5907 37.045
      vertex -56.7326 -12.0589 37.045
    endloop
  endfacet
  facet normal 0 0 1
    outer loop
      vertex -64 -63 37.045
      vertex -46.923 -34.0915 37.045
      vertex -52.9856 -23.5907 37.045
    endloop
  endfacet
  facet normal 0 0 1
    outer loop
      vertex -46.923 34.0915 37.045
      vertex -38.8096 43.1024 37.045
      vertex -64 57 37.045
    endloop
  endfacet
  facet normal 0 0 1
    outer loop
      vertex 6.06265 57.6823 37.045
      vertex 17.923 55.1613 37.045
      vertex 64 57 37.045
    endloop
  endfacet
  facet normal 0 0 1
    outer loop
      vertex 38.8096 -43.1024 37.045
      vertex 29 -50.2295 37.045
      vertex 64 -63 37.045
    endloop
  endfacet
  facet normal -1 0 0
    outer loop
      vertex -64 -63 -37.045
      vertex -64 -63 37.045
      vertex -64 57 -37.045
    endloop
  endfacet
  facet normal -1 0 0
    outer loop
      vertex -64 57 -37.045
      vertex -64 -63 37.045
      vertex -64 57 37.045
    endloop
  endfacet
  facet normal 0 -1 0
    outer loop
      vertex -51.25 -63 -32.21
      vertex -64 -63 -37.045
      vertex 64 -63 -37.045
    endloop
  endfacet
  facet normal 0 -1 0
    outer loop
      vertex -64 -63 37.045
      vertex -64 -63 -37.045
      vertex -60.5 -63 6
    endloop
  endfacet
  facet normal 0 -1 0
    outer loop
      vertex 51.25 -63 -32.21
      vertex -51.25 -63 -32.21
      vertex 64 -63 -37.045
    endloop
  endfacet
  facet normal 0 -1 0
    outer loop
      vertex -64 -63 37.045
      vertex -60.5 -63 6
      vertex -60.5 -63 32.71
    endloop
  endfacet
  facet normal 0 -1 0
    outer loop
      vertex 64 -63 37.045
      vertex 60.5 -63 32.71
      vertex 64 -63 -37.045
    endloop
  endfacet
  facet normal 0 -1 0
    outer loop
      vertex 64 -63 37.045
      vertex -64 -63 37.045
      vertex 60.5 -63 32.71
    endloop
  endfacet
  facet normal 0 -1 0
    outer loop
      vertex 60.5 -63 32.71
      vertex 60.5 -63 6
      vertex 64 -63 -37.045
    endloop
  endfacet
  facet normal 0 -1 0
    outer loop
      vertex -60.5 -63 6
      vertex -64 -63 -37.045
      vertex -51.25 -63 -32.21
    endloop
  endfacet
  facet normal 0 -1 0
    outer loop
      vertex -51.25 -63 0.67
      vertex 51.25 -63 0.67
      vertex -60.5 -63 6
    endloop
  endfacet
  facet normal 0 -1 0
    outer loop
      vertex -60.5 -63 6
      vertex -51.25 -63 -32.21
      vertex -51.25 -63 0.67
    endloop
  endfacet
  facet normal 0 -1 0
    outer loop
      vertex 60.5 -63 6
      vertex 51.25 -63 0.67
      vertex 64 -63 -37.045
    endloop
  endfacet
  facet normal 0 -1 0
    outer loop
      vertex -60.5 -63 32.71
      vertex 60.5 -63 32.71
      vertex -64 -63 37.045
    endloop
  endfacet
  facet normal 0 -1 0
    outer loop
      vertex 51.25 -63 0.67
      vertex 51.25 -63 -32.21
      vertex 64 -63 -37.045
    endloop
  endfacet
  facet normal 0 -1 0
    outer loop
      vertex 60.5 -63 6
      vertex -60.5 -63 6
      vertex 51.25 -63 0.67
    endloop
  endfacet
  facet normal 1 0 0
    outer loop
      vertex 64 -63 37.045
      vertex 64 -63 -37.045
      vertex 64 57 -37.045
    endloop
  endfacet
  facet normal 1 0 0
    outer loop
      vertex 64 57 37.045
      vertex 64 -63 37.045
      vertex 64 57 -37.045
    endloop
  endfacet
  facet normal 0 -1 0
    outer loop
      vertex 64 57 37.045
      vertex 64 57 -37.045
      vertex 73 57 -37.045
    endloop
  endfacet
  facet normal 0 -1 0
    outer loop
      vertex 73 57 37.045
      vertex 64 57 37.045
      vertex 73 57 -37.045
    endloop
  endfacet
  facet normal 1 0 0
    outer loop
      vertex 73 57 37.045
      vertex 73 57 -37.045
      vertex 73 63 -37.045
    endloop
  endfacet
  facet normal 1 0 0
    outer loop
      vertex 73 63 37.045
      vertex 73 57 37.045
      vertex 73 63 -37.045
    endloop
  endfacet
  facet normal 0.994522 -0.104528 0
    outer loop
      vertex -56.7326 12.0589 -37.045
      vertex -56.7326 12.0589 6
      vertex -58 0 6
    endloop
  endfacet
  facet normal 0.994522 -0.104528 0
    outer loop
      vertex -58 0 -37.045
      vertex -56.7326 12.0589 -37.045
      vertex -58 0 6
    endloop
  endfacet
  facet normal 0.994522 0.104528 0
    outer loop
      vertex -58 0 6
      vertex -56.7326 -12.0589 6
      vertex -56.7326 -12.0589 -37.045
    endloop
  endfacet
  facet normal 0.994522 0.104528 0
    outer loop
      vertex -58 0 -37.045
      vertex -58 0 6
      vertex -56.7326 -12.0589 -37.045
    endloop
  endfacet
  facet normal 0.951057 -0.309017 0
    outer loop
      vertex -52.9856 23.5907 -37.045
      vertex -52.9856 23.5907 6
      vertex -56.7326 12.0589 6
    endloop
  endfacet
  facet normal 0.951057 -0.309017 0
    outer loop
      vertex -56.7326 12.0589 -37.045
      vertex -52.9856 23.5907 -37.045
      vertex -56.7326 12.0589 6
    endloop
  endfacet
  facet normal 0.866025 -0.5 0
    outer loop
      vertex -51.25 26.5969 0.67
      vertex -52.9856 23.5907 6
      vertex -51.25 26.5969 -32.21
    endloop
  endfacet
  facet normal 0.866025 -0.5 0
    outer loop
      vertex -46.923 34.0915 -37.045
      vertex -46.923 34.0915 -32.21
      vertex -51.25 26.5969 -32.21
    endloop
  endfacet
  facet normal 0.866025 -0.5 0
    outer loop
      vertex -52.9856 23.5907 -37.045
      vertex -46.923 34.0915 -37.045
      vertex -51.25 26.5969 -32.21
    endloop
  endfacet
  facet normal 0.866025 -0.5 0
    outer loop
      vertex -46.923 34.0915 0.67
      vertex -46.923 34.0915 6
      vertex -51.25 26.5969 0.67
    endloop
  endfacet
  facet normal 0.866025 -0.5 0
    outer loop
      vertex -46.923 34.0915 6
      vertex -52.9856 23.5907 6
      vertex -51.25 26.5969 0.67
    endloop
  endfacet
  facet normal 0.866025 -0.5 0
    outer loop
      vertex -52.9856 23.5907 6
      vertex -52.9856 23.5907 -37.045
      vertex -51.25 26.5969 -32.21
    endloop
  endfacet
  facet normal 0.743145 -0.669131 0
    outer loop
      vertex -38.8096 43.1024 -37.045
      vertex -38.8096 43.1024 -32.21
      vertex -46.923 34.0915 -32.21
    endloop
  endfacet
  facet normal 0.743145 -0.669131 0
    outer loop
      vertex -46.923 34.0915 -37.045
      vertex -38.8096 43.1024 -37.045
      vertex -46.923 34.0915 -32.21
    endloop
  endfacet
  facet normal 0.587785 -0.809017 0
    outer loop
      vertex -29 50.2295 -37.045
      vertex -29 50.2295 -32.21
      vertex -38.8096 43.1024 -32.21
    endloop
  endfacet
  facet normal 0.587785 -0.809017 0
    outer loop
      vertex -38.8096 43.1024 -37.045
      vertex -29 50.2295 -37.045
      vertex -38.8096 43.1024 -32.21
    endloop
  endfacet
  facet normal 0.406737 -0.913545 0
    outer loop
      vertex -17.923 55.1613 -37.045
      vertex -17.923 55.1613 -32.21
      vertex -29 50.2295 -32.21
    endloop
  endfacet
  facet normal 0.406737 -0.913545 0
    outer loop
      vertex -29 50.2295 -37.045
      vertex -17.923 55.1613 -37.045
      vertex -29 50.2295 -32.21
    endloop
  endfacet
  facet normal 0.207912 -0.978148 0
    outer loop
      vertex -6.06265 57.6823 -37.045
      vertex -6.06265 57.6823 -32.21
      vertex -17.923 55.1613 -32.21
    endloop
  endfacet
  facet normal 0.207912 -0.978148 0
    outer loop
      vertex -17.923 55.1613 -37.045
      vertex -6.06265 57.6823 -37.045
      vertex -17.923 55.1613 -32.21
    endloop
  endfacet
  facet normal 0 -1 0
    outer loop
      vertex 6.06265 57.6823 -37.045
      vertex 6.06265 57.6823 -32.21
      vertex -6.06265 57.6823 -32.21
    endloop
  endfacet
  facet normal 0 -1 0
    outer loop
      vertex -6.06265 57.6823 -37.045
      vertex 6.06265 57.6823 -37.045
      vertex -6.06265 57.6823 -32.21
    endloop
  endfacet
  facet normal -0.207912 -0.978148 0
    outer loop
      vertex 17.923 55.1613 -37.045
      vertex 17.923 55.1613 -32.21
      vertex 6.06265 57.6823 -32.21
    endloop
  endfacet
  facet normal -0.207912 -0.978148 0
    outer loop
      vertex 6.06265 57.6823 -37.045
      vertex 17.923 55.1613 -37.045
      vertex 6.06265 57.6823 -32.21
    endloop
  endfacet
  facet normal -0.406737 -0.913545 0
    outer loop
      vertex 29 50.2295 -37.045
      vertex 29 50.2295 -32.21
      vertex 17.923 55.1613 -32.21
    endloop
  endfacet
  facet normal -0.406737 -0.913545 0
    outer loop
      vertex 17.923 55.1613 -37.045
      vertex 29 50.2295 -37.045
      vertex 17.923 55.1613 -32.21
    endloop
  endfacet
  facet normal -0.587785 -0.809017 0
    outer loop
      vertex 38.8096 43.1024 -37.045
      vertex 38.8096 43.1024 -32.21
      vertex 29 50.2295 -32.21
    endloop
  endfacet
  facet normal -0.587785 -0.809017 0
    outer loop
      vertex 29 50.2295 -37.045
      vertex 38.8096 43.1024 -37.045
      vertex 29 50.2295 -32.21
    endloop
  endfacet
  facet normal -0.743145 -0.669131 0
    outer loop
      vertex 46.923 34.0915 -32.21
      vertex 38.8096 43.1024 -32.21
      vertex 46.923 34.0915 -37.045
    endloop
  endfacet
  facet normal -0.743145 -0.669131 0
    outer loop
      vertex 46.923 34.0915 -37.045
      vertex 38.8096 43.1024 -32.21
      vertex 38.8096 43.1024 -37.045
    endloop
  endfacet
  facet normal -0.866025 -0.5 0
    outer loop
      vertex 51.25 26.5969 -32.21
      vertex 52.9856 23.5907 -37.045
      vertex 51.25 26.5969 0.67
    endloop
  endfacet
  facet normal -0.866025 -0.5 0
    outer loop
      vertex 52.9856 23.5907 6
      vertex 46.923 34.0915 6
      vertex 51.25 26.5969 0.67
    endloop
  endfacet
  facet normal -0.866025 -0.5 0
    outer loop
      vertex 52.9856 23.5907 6
      vertex 51.25 26.5969 0.67
      vertex 52.9856 23.5907 -37.045
    endloop
  endfacet
  facet normal -0.866025 -0.5 0
    outer loop
      vertex 52.9856 23.5907 -37.045
      vertex 51.25 26.5969 -32.21
      vertex 46.923 34.0915 -32.21
    endloop
  endfacet
  facet normal -0.866025 -0.5 0
    outer loop
      vertex 52.9856 23.5907 -37.045
      vertex 46.923 34.0915 -32.21
      vertex 46.923 34.0915 -37.045
    endloop
  endfacet
  facet normal -0.866025 -0.5 0
    outer loop
      vertex 51.25 26.5969 0.67
      vertex 46.923 34.0915 6
      vertex 46.923 34.0915 0.67
    endloop
  endfacet
  facet normal -0.951057 -0.309017 0
    outer loop
      vertex 56.7326 12.0589 6
      vertex 52.9856 23.5907 6
      vertex 56.7326 12.0589 -37.045
    endloop
  endfacet
  facet normal -0.951057 -0.309017 0
    outer loop
      vertex 56.7326 12.0589 -37.045
      vertex 52.9856 23.5907 6
      vertex 52.9856 23.5907 -37.045
    endloop
  endfacet
  facet normal -0.994522 -0.104528 0
    outer loop
      vertex 58 0 6
      vertex 56.7326 12.0589 6
      vertex 58 0 -37.045
    endloop
  endfacet
  facet normal -0.994522 -0.104528 0
    outer loop
      vertex 58 0 -37.045
      vertex 56.7326 12.0589 6
      vertex 56.7326 12.0589 -37.045
    endloop
  endfacet
  facet normal -0.994522 0.104528 0
    outer loop
      vertex 58 0 6
      vertex 58 0 -37.045
      vertex 56.7326 -12.0589 6
    endloop
  endfacet
  facet normal -0.994522 0.104528 0
    outer loop
      vertex 56.7326 -12.0589 6
      vertex 58 0 -37.045
      vertex 56.7326 -12.0589 -37.045
    endloop
  endfacet
  facet normal -0.951057 0.309017 0
    outer loop
      vertex 56.7326 -12.0589 6
      vertex 56.7326 -12.0589 -37.045
      vertex 52.9856 -23.5907 6
    endloop
  endfacet
  facet normal -0.951057 0.309017 0
    outer loop
      vertex 52.9856 -23.5907 6
      vertex 56.7326 -12.0589 -37.045
      vertex 52.9856 -23.5907 -37.045
    endloop
  endfacet
  facet normal -0.866025 0.5 0
    outer loop
      vertex 46.923 -34.0915 6
      vertex 51.25 -26.5969 0.67
      vertex 46.923 -34.0915 0.67
    endloop
  endfacet
  facet normal -0.866025 0.5 0
    outer loop
      vertex 52.9856 -23.5907 6
      vertex 51.25 -26.5969 0.67
      vertex 46.923 -34.0915 6
    endloop
  endfacet
  facet normal -0.866025 0.5 0
    outer loop
      vertex 51.25 -26.5969 -32.21
      vertex 51.25 -26.5969 0.67
      vertex 52.9856 -23.5907 6
    endloop
  endfacet
  facet normal -0.866025 0.5 0
    outer loop
      vertex 51.25 -26.5969 -32.21
      vertex 52.9856 -23.5907 6
      vertex 52.9856 -23.5907 -37.045
    endloop
  endfacet
  facet normal -0.866025 0.5 0
    outer loop
      vertex 51.25 -26.5969 -32.21
      vertex 52.9856 -23.5907 -37.045
      vertex 46.923 -34.0915 -32.21
    endloop
  endfacet
  facet normal -0.866025 0.5 0
    outer loop
      vertex 52.9856 -23.5907 -37.045
      vertex 46.923 -34.0915 -37.045
      vertex 46.923 -34.0915 -32.21
    endloop
  endfacet
  facet normal -0.743145 0.669131 0
    outer loop
      vertex 46.923 -34.0915 -32.21
      vertex 46.923 -34.0915 -37.045
      vertex 38.8096 -43.1024 -32.21
    endloop
  endfacet
  facet normal -0.743145 0.669131 0
    outer loop
      vertex 38.8096 -43.1024 -32.21
      vertex 46.923 -34.0915 -37.045
      vertex 38.8096 -43.1024 -37.045
    endloop
  endfacet
  facet normal -0.587785 0.809017 0
    outer loop
      vertex 38.8096 -43.1024 -32.21
      vertex 38.8096 -43.1024 -37.045
      vertex 29 -50.2295 -32.21
    endloop
  endfacet
  facet normal -0.587785 0.809017 0
    outer loop
      vertex 29 -50.2295 -32.21
      vertex 38.8096 -43.1024 -37.045
      vertex 29 -50.2295 -37.045
    endloop
  endfacet
  facet normal -0.406737 0.913545 0
    outer loop
      vertex 29 -50.2295 -32.21
      vertex 29 -50.2295 -37.045
      vertex 17.923 -55.1613 -32.21
    endloop
  endfacet
  facet normal -0.406737 0.913545 0
    outer loop
      vertex 17.923 -55.1613 -32.21
      vertex 29 -50.2295 -37.045
      vertex 17.923 -55.1613 -37.045
    endloop
  endfacet
  facet normal -0.207912 0.978148 0
    outer loop
      vertex 17.923 -55.1613 -32.21
      vertex 17.923 -55.1613 -37.045
      vertex 6.06265 -57.6823 -32.21
    endloop
  endfacet
  facet normal -0.207912 0.978148 0
    outer loop
      vertex 6.06265 -57.6823 -32.21
      vertex 17.923 -55.1613 -37.045
      vertex 6.06265 -57.6823 -37.045
    endloop
  endfacet
  facet normal 0 1 0
    outer loop
      vertex 6.06265 -57.6823 -32.21
      vertex 6.06265 -57.6823 -37.045
      vertex -6.06265 -57.6823 -32.21
    endloop
  endfacet
  facet normal 0 1 0
    outer loop
      vertex -6.06265 -57.6823 -32.21
      vertex 6.06265 -57.6823 -37.045
      vertex -6.06265 -57.6823 -37.045
    endloop
  endfacet
  facet normal 0.207912 0.978148 0
    outer loop
      vertex -6.06265 -57.6823 -32.21
      vertex -6.06265 -57.6823 -37.045
      vertex -17.923 -55.1613 -32.21
    endloop
  endfacet
  facet normal 0.207912 0.978148 0
    outer loop
      vertex -17.923 -55.1613 -32.21
      vertex -6.06265 -57.6823 -37.045
      vertex -17.923 -55.1613 -37.045
    endloop
  endfacet
  facet normal 0.406737 0.913545 0
    outer loop
      vertex -17.923 -55.1613 -32.21
      vertex -17.923 -55.1613 -37.045
      vertex -29 -50.2295 -32.21
    endloop
  endfacet
  facet normal 0.406737 0.913545 0
    outer loop
      vertex -29 -50.2295 -32.21
      vertex -17.923 -55.1613 -37.045
      vertex -29 -50.2295 -37.045
    endloop
  endfacet
  facet normal 0.587785 0.809017 0
    outer loop
      vertex -29 -50.2295 -32.21
      vertex -29 -50.2295 -37.045
      vertex -38.8096 -43.1024 -32.21
    endloop
  endfacet
  facet normal 0.587785 0.809017 0
    outer loop
      vertex -38.8096 -43.1024 -32.21
      vertex -29 -50.2295 -37.045
      vertex -38.8096 -43.1024 -37.045
    endloop
  endfacet
  facet normal 0.743145 0.669131 0
    outer loop
      vertex -46.923 -34.0915 -32.21
      vertex -38.8096 -43.1024 -32.21
      vertex -38.8096 -43.1024 -37.045
    endloop
  endfacet
  facet normal 0.743145 0.669131 0
    outer loop
      vertex -46.923 -34.0915 -37.045
      vertex -46.923 -34.0915 -32.21
      vertex -38.8096 -43.1024 -37.045
    endloop
  endfacet
  facet normal 0.866025 0.5 0
    outer loop
      vertex -52.9856 -23.5907 6
      vertex -46.923 -34.0915 6
      vertex -46.923 -34.0915 0.67
    endloop
  endfacet
  facet normal 0.866025 0.5 0
    outer loop
      vertex -51.25 -26.5969 -32.21
      vertex -52.9856 -23.5907 6
      vertex -51.25 -26.5969 0.67
    endloop
  endfacet
  facet normal 0.866025 0.5 0
    outer loop
      vertex -51.25 -26.5969 0.67
      vertex -52.9856 -23.5907 6
      vertex -46.923 -34.0915 0.67
    endloop
  endfacet
  facet normal 0.866025 0.5 0
    outer loop
      vertex -52.9856 -23.5907 -37.045
      vertex -52.9856 -23.5907 6
      vertex -51.25 -26.5969 -32.21
    endloop
  endfacet
  facet normal 0.866025 0.5 0
    outer loop
      vertex -46.923 -34.0915 -37.045
      vertex -51.25 -26.5969 -32.21
      vertex -46.923 -34.0915 -32.21
    endloop
  endfacet
  facet normal 0.866025 0.5 0
    outer loop
      vertex -52.9856 -23.5907 -37.045
      vertex -51.25 -26.5969 -32.21
      vertex -46.923 -34.0915 -37.045
    endloop
  endfacet
  facet normal 0.951057 0.309017 0
    outer loop
      vertex -56.7326 -12.0589 6
      vertex -52.9856 -23.5907 6
      vertex -52.9856 -23.5907 -37.045
    endloop
  endfacet
  facet normal 0.951057 0.309017 0
    outer loop
      vertex -56.7326 -12.0589 -37.045
      vertex -56.7326 -12.0589 6
      vertex -52.9856 -23.5907 -37.045
    endloop
  endfacet
  facet normal 1 0 0
    outer loop
      vertex -60.5 63 6
      vertex -60.5 63 32.71
      vertex -60.5 -63 32.71
    endloop
  endfacet
  facet normal 1 0 0
    outer loop
      vertex -60.5 -63 6
      vertex -60.5 63 6
      vertex -60.5 -63 32.71
    endloop
  endfacet
  facet normal 0 0 -1
    outer loop
      vertex -6.06265 -57.6823 32.71
      vertex 60.5 -63 32.71
      vertex -60.5 -63 32.71
    endloop
  endfacet
  facet normal 0 0 -1
    outer loop
      vertex 46.923 -34.0915 32.71
      vertex 60.5 -63 32.71
      vertex 38.8096 -43.1024 32.71
    endloop
  endfacet
  facet normal 0 0 -1
    outer loop
      vertex -58 0 32.71
      vertex -56.7326 -12.0589 32.71
      vertex -60.5 -63 32.71
    endloop
  endfacet
  facet normal 0 0 -1
    outer loop
      vertex 38.8096 -43.1024 32.71
      vertex 60.5 -63 32.71
      vertex 29 -50.2295 32.71
    endloop
  endfacet
  facet normal 0 0 -1
    outer loop
      vertex -56.7326 -12.0589 32.71
      vertex -52.9856 -23.5907 32.71
      vertex -60.5 -63 32.71
    endloop
  endfacet
  facet normal 0 0 -1
    outer loop
      vertex -52.9856 -23.5907 32.71
      vertex -46.923 -34.0915 32.71
      vertex -60.5 -63 32.71
    endloop
  endfacet
  facet normal 0 0 -1
    outer loop
      vertex -46.923 -34.0915 32.71
      vertex -38.8096 -43.1024 32.71
      vertex -60.5 -63 32.71
    endloop
  endfacet
  facet normal 0 0 -1
    outer loop
      vertex 29 -50.2295 32.71
      vertex 60.5 -63 32.71
      vertex 17.923 -55.1613 32.71
    endloop
  endfacet
  facet normal 0 0 -1
    outer loop
      vertex -38.8096 -43.1024 32.71
      vertex -29 -50.2295 32.71
      vertex -60.5 -63 32.71
    endloop
  endfacet
  facet normal 0 0 -1
    outer loop
      vertex -29 -50.2295 32.71
      vertex -17.923 -55.1613 32.71
      vertex -60.5 -63 32.71
    endloop
  endfacet
  facet normal 0 0 -1
    outer loop
      vertex 6.06265 -57.6823 32.71
      vertex 60.5 -63 32.71
      vertex -6.06265 -57.6823 32.71
    endloop
  endfacet
  facet normal 0 0 -1
    outer loop
      vertex -17.923 -55.1613 32.71
      vertex -6.06265 -57.6823 32.71
      vertex -60.5 -63 32.71
    endloop
  endfacet
  facet normal 0 0 -1
    outer loop
      vertex 52.9856 -23.5907 32.71
      vertex 60.5 -63 32.71
      vertex 46.923 -34.0915 32.71
    endloop
  endfacet
  facet normal 0 0 -1
    outer loop
      vertex 56.7326 -12.0589 32.71
      vertex 60.5 -63 32.71
      vertex 52.9856 -23.5907 32.71
    endloop
  endfacet
  facet normal 0 0 -1
    outer loop
      vertex 58 0 32.71
      vertex 60.5 -63 32.71
      vertex 56.7326 -12.0589 32.71
    endloop
  endfacet
  facet normal 0 0 -1
    outer loop
      vertex 60.5 63 32.71
      vertex 60.5 -63 32.71
      vertex 58 0 32.71
    endloop
  endfacet
  facet normal 0 0 -1
    outer loop
      vertex 52.9856 23.5907 32.71
      vertex 60.5 63 32.71
      vertex 56.7326 12.0589 32.71
    endloop
  endfacet
  facet normal 0 0 -1
    outer loop
      vertex -17.923 55.1613 32.71
      vertex -60.5 63 32.71
      vertex -6.06265 57.6823 32.71
    endloop
  endfacet
  facet normal 0 0 -1
    outer loop
      vertex 60.5 63 32.71
      vertex 52.9856 23.5907 32.71
      vertex 46.923 34.0915 32.71
    endloop
  endfacet
  facet normal 0 0 -1
    outer loop
      vertex 60.5 63 32.71
      vertex 46.923 34.0915 32.71
      vertex 38.8096 43.1024 32.71
    endloop
  endfacet
  facet normal 0 0 -1
    outer loop
      vertex 60.5 63 32.71
      vertex 38.8096 43.1024 32.71
      vertex 29 50.2295 32.71
    endloop
  endfacet
  facet normal 0 0 -1
    outer loop
      vertex 60.5 63 32.71
      vertex 29 50.2295 32.71
      vertex 17.923 55.1613 32.71
    endloop
  endfacet
  facet normal 0 0 -1
    outer loop
      vertex 60.5 63 32.71
      vertex 17.923 55.1613 32.71
      vertex 6.06265 57.6823 32.71
    endloop
  endfacet
  facet normal 0 0 -1
    outer loop
      vertex 60.5 63 32.71
      vertex 6.06265 57.6823 32.71
      vertex -60.5 63 32.71
    endloop
  endfacet
  facet normal 0 0 -1
    outer loop
      vertex 6.06265 57.6823 32.71
      vertex -6.06265 57.6823 32.71
      vertex -60.5 63 32.71
    endloop
  endfacet
  facet normal 0 0 -1
    outer loop
      vertex -29 50.2295 32.71
      vertex -60.5 63 32.71
      vertex -17.923 55.1613 32.71
    endloop
  endfacet
  facet normal 0 0 -1
    outer loop
      vertex -38.8096 43.1024 32.71
      vertex -60.5 63 32.71
      vertex -29 50.2295 32.71
    endloop
  endfacet
  facet normal 0 0 -1
    outer loop
      vertex 56.7326 12.0589 32.71
      vertex 60.5 63 32.71
      vertex 58 0 32.71
    endloop
  endfacet
  facet normal 0 0 -1
    outer loop
      vertex -46.923 34.0915 32.71
      vertex -60.5 63 32.71
      vertex -38.8096 43.1024 32.71
    endloop
  endfacet
  facet normal 0 0 -1
    outer loop
      vertex -58 0 32.71
      vertex -60.5 63 32.71
      vertex -56.7326 12.0589 32.71
    endloop
  endfacet
  facet normal 0 0 -1
    outer loop
      vertex -60.5 63 32.71
      vertex -46.923 34.0915 32.71
      vertex -52.9856 23.5907 32.71
    endloop
  endfacet
  facet normal 0 0 -1
    outer loop
      vertex -60.5 63 32.71
      vertex -52.9856 23.5907 32.71
      vertex -56.7326 12.0589 32.71
    endloop
  endfacet
  facet normal 0 0 -1
    outer loop
      vertex -60.5 63 32.71
      vertex -58 0 32.71
      vertex -60.5 -63 32.71
    endloop
  endfacet
  facet normal 0 0 -1
    outer loop
      vertex 17.923 -55.1613 32.71
      vertex 60.5 -63 32.71
      vertex 6.06265 -57.6823 32.71
    endloop
  endfacet
  facet normal -1 0 0
    outer loop
      vertex 60.5 63 32.71
      vertex 60.5 63 6
      vertex 60.5 -63 32.71
    endloop
  endfacet
  facet normal -1 0 0
    outer loop
      vertex 60.5 -63 32.71
      vertex 60.5 63 6
      vertex 60.5 -63 6
    endloop
  endfacet
  facet normal 0 0 1
    outer loop
      vertex -6.06265 57.6823 6
      vertex 60.5 63 6
      vertex -60.5 63 6
    endloop
  endfacet
  facet normal 0 0 1
    outer loop
      vertex -60.5 -63 6
      vertex -58 0 6
      vertex -60.5 63 6
    endloop
  endfacet
  facet normal 0 0 1
    outer loop
      vertex -58 0 6
      vertex -56.7326 12.0589 6
      vertex -60.5 63 6
    endloop
  endfacet
  facet normal 0 0 1
    outer loop
      vertex -56.7326 12.0589 6
      vertex -52.9856 23.5907 6
      vertex -60.5 63 6
    endloop
  endfacet
  facet normal 0 0 1
    outer loop
      vertex -6.06265 -57.6823 6
      vertex -17.923 -55.1613 6
      vertex -60.5 -63 6
    endloop
  endfacet
  facet normal 0 0 1
    outer loop
      vertex -52.9856 23.5907 6
      vertex -46.923 34.0915 6
      vertex -60.5 63 6
    endloop
  endfacet
  facet normal 0 0 1
    outer loop
      vertex -38.8096 43.1024 6
      vertex -29 50.2295 6
      vertex -60.5 63 6
    endloop
  endfacet
  facet normal 0 0 1
    outer loop
      vertex -29 50.2295 6
      vertex -17.923 55.1613 6
      vertex -60.5 63 6
    endloop
  endfacet
  facet normal 0 0 1
    outer loop
      vertex 17.923 55.1613 6
      vertex 29 50.2295 6
      vertex 60.5 63 6
    endloop
  endfacet
  facet normal 0 0 1
    outer loop
      vertex -17.923 55.1613 6
      vertex -6.06265 57.6823 6
      vertex -60.5 63 6
    endloop
  endfacet
  facet normal 0 0 1
    outer loop
      vertex 6.06265 57.6823 6
      vertex 60.5 63 6
      vertex -6.06265 57.6823 6
    endloop
  endfacet
  facet normal 0 0 1
    outer loop
      vertex 56.7326 -12.0589 6
      vertex 52.9856 -23.5907 6
      vertex 60.5 -63 6
    endloop
  endfacet
  facet normal 0 0 1
    outer loop
      vertex 58 0 6
      vertex 56.7326 -12.0589 6
      vertex 60.5 -63 6
    endloop
  endfacet
  facet normal 0 0 1
    outer loop
      vertex 38.8096 43.1024 6
      vertex 60.5 63 6
      vertex 29 50.2295 6
    endloop
  endfacet
  facet normal 0 0 1
    outer loop
      vertex 46.923 -34.0915 6
      vertex 38.8096 -43.1024 6
      vertex 60.5 -63 6
    endloop
  endfacet
  facet normal 0 0 1
    outer loop
      vertex 46.923 34.0915 6
      vertex 60.5 63 6
      vertex 38.8096 43.1024 6
    endloop
  endfacet
  facet normal 0 0 1
    outer loop
      vertex 52.9856 23.5907 6
      vertex 60.5 63 6
      vertex 46.923 34.0915 6
    endloop
  endfacet
  facet normal 0 0 1
    outer loop
      vertex 56.7326 12.0589 6
      vertex 60.5 63 6
      vertex 52.9856 23.5907 6
    endloop
  endfacet
  facet normal 0 0 1
    outer loop
      vertex 58 0 6
      vertex 60.5 63 6
      vertex 56.7326 12.0589 6
    endloop
  endfacet
  facet normal 0 0 1
    outer loop
      vertex 60.5 -63 6
      vertex 60.5 63 6
      vertex 58 0 6
    endloop
  endfacet
  facet normal 0 0 1
    outer loop
      vertex 52.9856 -23.5907 6
      vertex 46.923 -34.0915 6
      vertex 60.5 -63 6
    endloop
  endfacet
  facet normal 0 0 1
    outer loop
      vertex 6.06265 57.6823 6
      vertex 17.923 55.1613 6
      vertex 60.5 63 6
    endloop
  endfacet
  facet normal 0 0 1
    outer loop
      vertex 17.923 -55.1613 6
      vertex 60.5 -63 6
      vertex 29 -50.2295 6
    endloop
  endfacet
  facet normal 0 0 1
    outer loop
      vertex 6.06265 -57.6823 6
      vertex 60.5 -63 6
      vertex 17.923 -55.1613 6
    endloop
  endfacet
  facet normal 0 0 1
    outer loop
      vertex -60.5 -63 6
      vertex 60.5 -63 6
      vertex 6.06265 -57.6823 6
    endloop
  endfacet
  facet normal 0 0 1
    outer loop
      vertex -60.5 -63 6
      vertex 6.06265 -57.6823 6
      vertex -6.06265 -57.6823 6
    endloop
  endfacet
  facet normal 0 0 1
    outer loop
      vertex -60.5 -63 6
      vertex -17.923 -55.1613 6
      vertex -29 -50.2295 6
    endloop
  endfacet
  facet normal 0 0 1
    outer loop
      vertex -60.5 -63 6
      vertex -29 -50.2295 6
      vertex -38.8096 -43.1024 6
    endloop
  endfacet
  facet normal 0 0 1
    outer loop
      vertex -60.5 -63 6
      vertex -38.8096 -43.1024 6
      vertex -46.923 -34.0915 6
    endloop
  endfacet
  facet normal 0 0 1
    outer loop
      vertex -60.5 -63 6
      vertex -46.923 -34.0915 6
      vertex -52.9856 -23.5907 6
    endloop
  endfacet
  facet normal 0 0 1
    outer loop
      vertex -60.5 -63 6
      vertex -56.7326 -12.0589 6
      vertex -58 0 6
    endloop
  endfacet
  facet normal 0 0 1
    outer loop
      vertex -60.5 -63 6
      vertex -52.9856 -23.5907 6
      vertex -56.7326 -12.0589 6
    endloop
  endfacet
  facet normal 0 0 1
    outer loop
      vertex -46.923 34.0915 6
      vertex -38.8096 43.1024 6
      vertex -60.5 63 6
    endloop
  endfacet
  facet normal 0 0 1
    outer loop
      vertex 38.8096 -43.1024 6
      vertex 29 -50.2295 6
      vertex 60.5 -63 6
    endloop
  endfacet
  facet normal 1 0 0
    outer loop
      vertex -51.25 63 -32.21
      vertex -51.25 63 0.67
      vertex -51.25 26.5969 0.67
    endloop
  endfacet
  facet normal 1 0 0
    outer loop
      vertex -51.25 26.5969 -32.21
      vertex -51.25 63 -32.21
      vertex -51.25 26.5969 0.67
    endloop
  endfacet
  facet normal 0 0 -1
    outer loop
      vertex 51.25 63 0.67
      vertex 51.25 26.5969 0.67
      vertex 46.923 34.0915 0.67
    endloop
  endfacet
  facet normal 0 0 -1
    outer loop
      vertex 51.25 63 0.67
      vertex 46.923 34.0915 0.67
      vertex 38.8096 43.1024 0.67
    endloop
  endfacet
  facet normal 0 0 -1
    outer loop
      vertex 51.25 63 0.67
      vertex 38.8096 43.1024 0.67
      vertex 29 50.2295 0.67
    endloop
  endfacet
  facet normal 0 0 -1
    outer loop
      vertex 51.25 63 0.67
      vertex 29 50.2295 0.67
      vertex 17.923 55.1613 0.67
    endloop
  endfacet
  facet normal 0 0 -1
    outer loop
      vertex 51.25 63 0.67
      vertex 17.923 55.1613 0.67
      vertex 6.06265 57.6823 0.67
    endloop
  endfacet
  facet normal 0 0 -1
    outer loop
      vertex 51.25 63 0.67
      vertex 6.06265 57.6823 0.67
      vertex -51.25 63 0.67
    endloop
  endfacet
  facet normal 0 0 -1
    outer loop
      vertex -17.923 55.1613 0.67
      vertex -51.25 63 0.67
      vertex -6.06265 57.6823 0.67
    endloop
  endfacet
  facet normal 0 0 -1
    outer loop
      vertex -29 50.2295 0.67
      vertex -51.25 63 0.67
      vertex -17.923 55.1613 0.67
    endloop
  endfacet
  facet normal 0 0 -1
    outer loop
      vertex -51.25 63 0.67
      vertex -29 50.2295 0.67
      vertex -38.8096 43.1024 0.67
    endloop
  endfacet
  facet normal 0 0 -1
    outer loop
      vertex -38.8096 43.1024 0.67
      vertex -46.923 34.0915 0.67
      vertex -51.25 63 0.67
    endloop
  endfacet
  facet normal 0 0 -1
    outer loop
      vertex -46.923 34.0915 0.67
      vertex -51.25 26.5969 0.67
      vertex -51.25 63 0.67
    endloop
  endfacet
  facet normal 0 0 -1
    outer loop
      vertex -6.06265 57.6823 0.67
      vertex -51.25 63 0.67
      vertex 6.06265 57.6823 0.67
    endloop
  endfacet
  facet normal -1 0 0
    outer loop
      vertex 51.25 63 0.67
      vertex 51.25 63 -32.21
      vertex 51.25 26.5969 0.67
    endloop
  endfacet
  facet normal -1 0 0
    outer loop
      vertex 51.25 26.5969 0.67
      vertex 51.25 63 -32.21
      vertex 51.25 26.5969 -32.21
    endloop
  endfacet
  facet normal 0 0 1
    outer loop
      vertex -51.25 63 -32.21
      vertex -38.8096 43.1024 -32.21
      vertex -29 50.2295 -32.21
    endloop
  endfacet
  facet normal 0 0 1
    outer loop
      vertex -6.06265 57.6823 -32.21
      vertex -51.25 63 -32.21
      vertex -17.923 55.1613 -32.21
    endloop
  endfacet
  facet normal 0 0 1
    outer loop
      vertex -17.923 55.1613 -32.21
      vertex -51.25 63 -32.21
      vertex -29 50.2295 -32.21
    endloop
  endfacet
  facet normal 0 0 1
    outer loop
      vertex -46.923 34.0915 -32.21
      vertex -38.8096 43.1024 -32.21
      vertex -51.25 63 -32.21
    endloop
  endfacet
  facet normal 0 0 1
    outer loop
      vertex 6.06265 57.6823 -32.21
      vertex 51.25 63 -32.21
      vertex -6.06265 57.6823 -32.21
    endloop
  endfacet
  facet normal 0 0 1
    outer loop
      vertex 17.923 55.1613 -32.21
      vertex 51.25 63 -32.21
      vertex 6.06265 57.6823 -32.21
    endloop
  endfacet
  facet normal 0 0 1
    outer loop
      vertex 29 50.2295 -32.21
      vertex 51.25 63 -32.21
      vertex 17.923 55.1613 -32.21
    endloop
  endfacet
  facet normal 0 0 1
    outer loop
      vertex 38.8096 43.1024 -32.21
      vertex 51.25 63 -32.21
      vertex 29 50.2295 -32.21
    endloop
  endfacet
  facet normal 0 0 1
    outer loop
      vertex 46.923 34.0915 -32.21
      vertex 51.25 63 -32.21
      vertex 38.8096 43.1024 -32.21
    endloop
  endfacet
  facet normal 0 0 1
    outer loop
      vertex 51.25 26.5969 -32.21
      vertex 51.25 63 -32.21
      vertex 46.923 34.0915 -32.21
    endloop
  endfacet
  facet normal 0 0 1
    outer loop
      vertex 51.25 63 -32.21
      vertex -51.25 63 -32.21
      vertex -6.06265 57.6823 -32.21
    endloop
  endfacet
  facet normal 0 0 1
    outer loop
      vertex -46.923 34.0915 -32.21
      vertex -51.25 63 -32.21
      vertex -51.25 26.5969 -32.21
    endloop
  endfacet
  facet normal 0.951057 0.309017 0
    outer loop
      vertex -56.7326 -12.0589 37.045
      vertex -52.9856 -23.5907 37.045
      vertex -52.9856 -23.5907 32.71
    endloop
  endfacet
  facet normal 0.951057 0.309017 0
    outer loop
      vertex -56.7326 -12.0589 32.71
      vertex -56.7326 -12.0589 37.045
      vertex -52.9856 -23.5907 32.71
    endloop
  endfacet
  facet normal 0.994522 0.104528 0
    outer loop
      vertex -58 0 37.045
      vertex -56.7326 -12.0589 37.045
      vertex -56.7326 -12.0589 32.71
    endloop
  endfacet
  facet normal 0.994522 0.104528 0
    outer loop
      vertex -58 0 32.71
      vertex -58 0 37.045
      vertex -56.7326 -12.0589 32.71
    endloop
  endfacet
  facet normal 0.866025 0.5 0
    outer loop
      vertex -52.9856 -23.5907 37.045
      vertex -46.923 -34.0915 37.045
      vertex -46.923 -34.0915 32.71
    endloop
  endfacet
  facet normal 0.866025 0.5 0
    outer loop
      vertex -52.9856 -23.5907 32.71
      vertex -52.9856 -23.5907 37.045
      vertex -46.923 -34.0915 32.71
    endloop
  endfacet
  facet normal 0.743145 0.669131 0
    outer loop
      vertex -46.923 -34.0915 37.045
      vertex -38.8096 -43.1024 37.045
      vertex -38.8096 -43.1024 32.71
    endloop
  endfacet
  facet normal 0.743145 0.669131 0
    outer loop
      vertex -46.923 -34.0915 32.71
      vertex -46.923 -34.0915 37.045
      vertex -38.8096 -43.1024 32.71
    endloop
  endfacet
  facet normal 0.587785 0.809017 0
    outer loop
      vertex -29 -50.2295 37.045
      vertex -29 -50.2295 32.71
      vertex -38.8096 -43.1024 37.045
    endloop
  endfacet
  facet normal 0.587785 0.809017 0
    outer loop
      vertex -38.8096 -43.1024 37.045
      vertex -29 -50.2295 32.71
      vertex -38.8096 -43.1024 32.71
    endloop
  endfacet
  facet normal 0.406737 0.913545 0
    outer loop
      vertex -17.923 -55.1613 37.045
      vertex -17.923 -55.1613 32.71
      vertex -29 -50.2295 37.045
    endloop
  endfacet
  facet normal 0.406737 0.913545 0
    outer loop
      vertex -29 -50.2295 37.045
      vertex -17.923 -55.1613 32.71
      vertex -29 -50.2295 32.71
    endloop
  endfacet
  facet normal 0.207912 0.978148 0
    outer loop
      vertex -6.06265 -57.6823 37.045
      vertex -6.06265 -57.6823 32.71
      vertex -17.923 -55.1613 37.045
    endloop
  endfacet
  facet normal 0.207912 0.978148 0
    outer loop
      vertex -17.923 -55.1613 37.045
      vertex -6.06265 -57.6823 32.71
      vertex -17.923 -55.1613 32.71
    endloop
  endfacet
  facet normal 0 1 0
    outer loop
      vertex 6.06265 -57.6823 37.045
      vertex 6.06265 -57.6823 32.71
      vertex -6.06265 -57.6823 37.045
    endloop
  endfacet
  facet normal 0 1 0
    outer loop
      vertex -6.06265 -57.6823 37.045
      vertex 6.06265 -57.6823 32.71
      vertex -6.06265 -57.6823 32.71
    endloop
  endfacet
  facet normal -0.207912 0.978148 0
    outer loop
      vertex 17.923 -55.1613 37.045
      vertex 17.923 -55.1613 32.71
      vertex 6.06265 -57.6823 37.045
    endloop
  endfacet
  facet normal -0.207912 0.978148 0
    outer loop
      vertex 6.06265 -57.6823 37.045
      vertex 17.923 -55.1613 32.71
      vertex 6.06265 -57.6823 32.71
    endloop
  endfacet
  facet normal -0.406737 0.913545 0
    outer loop
      vertex 29 -50.2295 37.045
      vertex 29 -50.2295 32.71
      vertex 17.923 -55.1613 37.045
    endloop
  endfacet
  facet normal -0.406737 0.913545 0
    outer loop
      vertex 17.923 -55.1613 37.045
      vertex 29 -50.2295 32.71
      vertex 17.923 -55.1613 32.71
    endloop
  endfacet
  facet normal -0.587785 0.809017 0
    outer loop
      vertex 38.8096 -43.1024 37.045
      vertex 38.8096 -43.1024 32.71
      vertex 29 -50.2295 37.045
    endloop
  endfacet
  facet normal -0.587785 0.809017 0
    outer loop
      vertex 29 -50.2295 37.045
      vertex 38.8096 -43.1024 32.71
      vertex 29 -50.2295 32.71
    endloop
  endfacet
  facet normal -0.743145 0.669131 0
    outer loop
      vertex 46.923 -34.0915 37.045
      vertex 46.923 -34.0915 32.71
      vertex 38.8096 -43.1024 37.045
    endloop
  endfacet
  facet normal -0.743145 0.669131 0
    outer loop
      vertex 38.8096 -43.1024 37.045
      vertex 46.923 -34.0915 32.71
      vertex 38.8096 -43.1024 32.71
    endloop
  endfacet
  facet normal -0.866025 0.5 0
    outer loop
      vertex 52.9856 -23.5907 37.045
      vertex 52.9856 -23.5907 32.71
      vertex 46.923 -34.0915 37.045
    endloop
  endfacet
  facet normal -0.866025 0.5 0
    outer loop
      vertex 46.923 -34.0915 37.045
      vertex 52.9856 -23.5907 32.71
      vertex 46.923 -34.0915 32.71
    endloop
  endfacet
  facet normal -0.951057 0.309017 0
    outer loop
      vertex 56.7326 -12.0589 37.045
      vertex 56.7326 -12.0589 32.71
      vertex 52.9856 -23.5907 37.045
    endloop
  endfacet
  facet normal -0.951057 0.309017 0
    outer loop
      vertex 52.9856 -23.5907 37.045
      vertex 56.7326 -12.0589 32.71
      vertex 52.9856 -23.5907 32.71
    endloop
  endfacet
  facet normal -0.994522 0.104528 0
    outer loop
      vertex 58 0 37.045
      vertex 58 0 32.71
      vertex 56.7326 -12.0589 37.045
    endloop
  endfacet
  facet normal -0.994522 0.104528 0
    outer loop
      vertex 56.7326 -12.0589 37.045
      vertex 58 0 32.71
      vertex 56.7326 -12.0589 32.71
    endloop
  endfacet
  facet normal -0.994522 -0.104528 0
    outer loop
      vertex 58 0 37.045
      vertex 56.7326 12.0589 37.045
      vertex 58 0 32.71
    endloop
  endfacet
  facet normal -0.994522 -0.104528 0
    outer loop
      vertex 58 0 32.71
      vertex 56.7326 12.0589 37.045
      vertex 56.7326 12.0589 32.71
    endloop
  endfacet
  facet normal -0.951057 -0.309017 0
    outer loop
      vertex 56.7326 12.0589 37.045
      vertex 52.9856 23.5907 37.045
      vertex 56.7326 12.0589 32.71
    endloop
  endfacet
  facet normal -0.951057 -0.309017 0
    outer loop
      vertex 56.7326 12.0589 32.71
      vertex 52.9856 23.5907 37.045
      vertex 52.9856 23.5907 32.71
    endloop
  endfacet
  facet normal -0.866025 -0.5 0
    outer loop
      vertex 52.9856 23.5907 37.045
      vertex 46.923 34.0915 37.045
      vertex 52.9856 23.5907 32.71
    endloop
  endfacet
  facet normal -0.866025 -0.5 0
    outer loop
      vertex 52.9856 23.5907 32.71
      vertex 46.923 34.0915 37.045
      vertex 46.923 34.0915 32.71
    endloop
  endfacet
  facet normal -0.743145 -0.669131 0
    outer loop
      vertex 46.923 34.0915 37.045
      vertex 38.8096 43.1024 37.045
      vertex 46.923 34.0915 32.71
    endloop
  endfacet
  facet normal -0.743145 -0.669131 0
    outer loop
      vertex 46.923 34.0915 32.71
      vertex 38.8096 43.1024 37.045
      vertex 38.8096 43.1024 32.71
    endloop
  endfacet
  facet normal -0.587785 -0.809017 0
    outer loop
      vertex 38.8096 43.1024 32.71
      vertex 38.8096 43.1024 37.045
      vertex 29 50.2295 37.045
    endloop
  endfacet
  facet normal -0.587785 -0.809017 0
    outer loop
      vertex 29 50.2295 32.71
      vertex 38.8096 43.1024 32.71
      vertex 29 50.2295 37.045
    endloop
  endfacet
  facet normal -0.406737 -0.913545 0
    outer loop
      vertex 29 50.2295 32.71
      vertex 29 50.2295 37.045
      vertex 17.923 55.1613 37.045
    endloop
  endfacet
  facet normal -0.406737 -0.913545 0
    outer loop
      vertex 17.923 55.1613 32.71
      vertex 29 50.2295 32.71
      vertex 17.923 55.1613 37.045
    endloop
  endfacet
  facet normal -0.207912 -0.978148 0
    outer loop
      vertex 17.923 55.1613 32.71
      vertex 17.923 55.1613 37.045
      vertex 6.06265 57.6823 37.045
    endloop
  endfacet
  facet normal -0.207912 -0.978148 0
    outer loop
      vertex 6.06265 57.6823 32.71
      vertex 17.923 55.1613 32.71
      vertex 6.06265 57.6823 37.045
    endloop
  endfacet
  facet normal 0 -1 0
    outer loop
      vertex 6.06265 57.6823 32.71
      vertex 6.06265 57.6823 37.045
      vertex -6.06265 57.6823 37.045
    endloop
  endfacet
  facet normal 0 -1 0
    outer loop
      vertex -6.06265 57.6823 32.71
      vertex 6.06265 57.6823 32.71
      vertex -6.06265 57.6823 37.045
    endloop
  endfacet
  facet normal 0.207912 -0.978148 0
    outer loop
      vertex -6.06265 57.6823 32.71
      vertex -6.06265 57.6823 37.045
      vertex -17.923 55.1613 37.045
    endloop
  endfacet
  facet normal 0.207912 -0.978148 0
    outer loop
      vertex -17.923 55.1613 32.71
      vertex -6.06265 57.6823 32.71
      vertex -17.923 55.1613 37.045
    endloop
  endfacet
  facet normal 0.406737 -0.913545 0
    outer loop
      vertex -17.923 55.1613 32.71
      vertex -17.923 55.1613 37.045
      vertex -29 50.2295 37.045
    endloop
  endfacet
  facet normal 0.406737 -0.913545 0
    outer loop
      vertex -29 50.2295 32.71
      vertex -17.923 55.1613 32.71
      vertex -29 50.2295 37.045
    endloop
  endfacet
  facet normal 0.587785 -0.809017 0
    outer loop
      vertex -29 50.2295 32.71
      vertex -29 50.2295 37.045
      vertex -38.8096 43.1024 37.045
    endloop
  endfacet
  facet normal 0.587785 -0.809017 0
    outer loop
      vertex -38.8096 43.1024 32.71
      vertex -29 50.2295 32.71
      vertex -38.8096 43.1024 37.045
    endloop
  endfacet
  facet normal 0.743145 -0.669131 0
    outer loop
      vertex -38.8096 43.1024 32.71
      vertex -38.8096 43.1024 37.045
      vertex -46.923 34.0915 37.045
    endloop
  endfacet
  facet normal 0.743145 -0.669131 0
    outer loop
      vertex -46.923 34.0915 32.71
      vertex -38.8096 43.1024 32.71
      vertex -46.923 34.0915 37.045
    endloop
  endfacet
  facet normal 0.866025 -0.5 0
    outer loop
      vertex -46.923 34.0915 32.71
      vertex -46.923 34.0915 37.045
      vertex -52.9856 23.5907 37.045
    endloop
  endfacet
  facet normal 0.866025 -0.5 0
    outer loop
      vertex -52.9856 23.5907 32.71
      vertex -46.923 34.0915 32.71
      vertex -52.9856 23.5907 37.045
    endloop
  endfacet
  facet normal 0.951057 -0.309017 0
    outer loop
      vertex -52.9856 23.5907 32.71
      vertex -52.9856 23.5907 37.045
      vertex -56.7326 12.0589 37.045
    endloop
  endfacet
  facet normal 0.951057 -0.309017 0
    outer loop
      vertex -56.7326 12.0589 32.71
      vertex -52.9856 23.5907 32.71
      vertex -56.7326 12.0589 37.045
    endloop
  endfacet
  facet normal 0.994522 -0.104528 0
    outer loop
      vertex -56.7326 12.0589 32.71
      vertex -56.7326 12.0589 37.045
      vertex -58 0 37.045
    endloop
  endfacet
  facet normal 0.994522 -0.104528 0
    outer loop
      vertex -58 0 32.71
      vertex -56.7326 12.0589 32.71
      vertex -58 0 37.045
    endloop
  endfacet
  facet normal 1 0 0
    outer loop
      vertex -51.25 -26.5969 -32.21
      vertex -51.25 -26.5969 0.67
      vertex -51.25 -63 0.67
    endloop
  endfacet
  facet normal 1 0 0
    outer loop
      vertex -51.25 -63 -32.21
      vertex -51.25 -26.5969 -32.21
      vertex -51.25 -63 0.67
    endloop
  endfacet
  facet normal 0 0 1
    outer loop
      vertex 29 -50.2295 -32.21
      vertex 17.923 -55.1613 -32.21
      vertex 51.25 -63 -32.21
    endloop
  endfacet
  facet normal 0 0 1
    outer loop
      vertex 51.25 -63 -32.21
      vertex 51.25 -26.5969 -32.21
      vertex 46.923 -34.0915 -32.21
    endloop
  endfacet
  facet normal 0 0 1
    outer loop
      vertex 17.923 -55.1613 -32.21
      vertex 6.06265 -57.6823 -32.21
      vertex 51.25 -63 -32.21
    endloop
  endfacet
  facet normal 0 0 1
    outer loop
      vertex 38.8096 -43.1024 -32.21
      vertex 51.25 -63 -32.21
      vertex 46.923 -34.0915 -32.21
    endloop
  endfacet
  facet normal 0 0 1
    outer loop
      vertex 38.8096 -43.1024 -32.21
      vertex 29 -50.2295 -32.21
      vertex 51.25 -63 -32.21
    endloop
  endfacet
  facet normal 0 0 1
    outer loop
      vertex 6.06265 -57.6823 -32.21
      vertex -6.06265 -57.6823 -32.21
      vertex 51.25 -63 -32.21
    endloop
  endfacet
  facet normal 0 0 1
    outer loop
      vertex -6.06265 -57.6823 -32.21
      vertex -51.25 -63 -32.21
      vertex 51.25 -63 -32.21
    endloop
  endfacet
  facet normal 0 0 1
    outer loop
      vertex -17.923 -55.1613 -32.21
      vertex -51.25 -63 -32.21
      vertex -6.06265 -57.6823 -32.21
    endloop
  endfacet
  facet normal 0 0 1
    outer loop
      vertex -29 -50.2295 -32.21
      vertex -51.25 -63 -32.21
      vertex -17.923 -55.1613 -32.21
    endloop
  endfacet
  facet normal 0 0 1
    outer loop
      vertex -38.8096 -43.1024 -32.21
      vertex -51.25 -63 -32.21
      vertex -29 -50.2295 -32.21
    endloop
  endfacet
  facet normal 0 0 1
    outer loop
      vertex -46.923 -34.0915 -32.21
      vertex -51.25 -63 -32.21
      vertex -38.8096 -43.1024 -32.21
    endloop
  endfacet
  facet normal 0 0 1
    outer loop
      vertex -51.25 -26.5969 -32.21
      vertex -51.25 -63 -32.21
      vertex -46.923 -34.0915 -32.21
    endloop
  endfacet
  facet normal -1 0 0
    outer loop
      vertex 51.25 -26.5969 0.67
      vertex 51.25 -26.5969 -32.21
      vertex 51.25 -63 0.67
    endloop
  endfacet
  facet normal -1 0 0
    outer loop
      vertex 51.25 -63 0.67
      vertex 51.25 -26.5969 -32.21
      vertex 51.25 -63 -32.21
    endloop
  endfacet
  facet normal 0 0 -1
    outer loop
      vertex -46.923 -34.0915 0.67
      vertex -51.25 -63 0.67
      vertex -51.25 -26.5969 0.67
    endloop
  endfacet
  facet normal 0 0 -1
    outer loop
      vertex -46.923 -34.0915 0.67
      vertex -38.8096 -43.1024 0.67
      vertex -51.25 -63 0.67
    endloop
  endfacet
  facet normal 0 0 -1
    outer loop
      vertex -38.8096 -43.1024 0.67
      vertex -29 -50.2295 0.67
      vertex -51.25 -63 0.67
    endloop
  endfacet
  facet normal 0 0 -1
    outer loop
      vertex -29 -50.2295 0.67
      vertex -17.923 -55.1613 0.67
      vertex -51.25 -63 0.67
    endloop
  endfacet
  facet normal 0 0 -1
    outer loop
      vertex -51.25 -63 0.67
      vertex -6.06265 -57.6823 0.67
      vertex 51.25 -63 0.67
    endloop
  endfacet
  facet normal 0 0 -1
    outer loop
      vertex -6.06265 -57.6823 0.67
      vertex 6.06265 -57.6823 0.67
      vertex 51.25 -63 0.67
    endloop
  endfacet
  facet normal 0 0 -1
    outer loop
      vertex 6.06265 -57.6823 0.67
      vertex 17.923 -55.1613 0.67
      vertex 51.25 -63 0.67
    endloop
  endfacet
  facet normal 0 0 -1
    outer loop
      vertex 17.923 -55.1613 0.67
      vertex 29 -50.2295 0.67
      vertex 51.25 -63 0.67
    endloop
  endfacet
  facet normal 0 0 -1
    outer loop
      vertex 51.25 -63 0.67
      vertex 38.8096 -43.1024 0.67
      vertex 46.923 -34.0915 0.67
    endloop
  endfacet
  facet normal 0 0 -1
    outer loop
      vertex 51.25 -63 0.67
      vertex 46.923 -34.0915 0.67
      vertex 51.25 -26.5969 0.67
    endloop
  endfacet
  facet normal 0 0 -1
    outer loop
      vertex 29 -50.2295 0.67
      vertex 38.8096 -43.1024 0.67
      vertex 51.25 -63 0.67
    endloop
  endfacet
  facet normal 0 0 -1
    outer loop
      vertex -17.923 -55.1613 0.67
      vertex -6.06265 -57.6823 0.67
      vertex -51.25 -63 0.67
    endloop
  endfacet
  facet normal 0.743145 -0.669131 0
    outer loop
      vertex -38.8096 43.1024 0.67
      vertex -38.8096 43.1024 6
      vertex -46.923 34.0915 6
    endloop
  endfacet
  facet normal 0.743145 -0.669131 0
    outer loop
      vertex -46.923 34.0915 0.67
      vertex -38.8096 43.1024 0.67
      vertex -46.923 34.0915 6
    endloop
  endfacet
  facet normal -0.743145 -0.669131 0
    outer loop
      vertex 46.923 34.0915 6
      vertex 38.8096 43.1024 6
      vertex 46.923 34.0915 0.67
    endloop
  endfacet
  facet normal -0.743145 -0.669131 0
    outer loop
      vertex 46.923 34.0915 0.67
      vertex 38.8096 43.1024 6
      vertex 38.8096 43.1024 0.67
    endloop
  endfacet
  facet normal -0.743145 0.669131 0
    outer loop
      vertex 46.923 -34.0915 6
      vertex 46.923 -34.0915 0.67
      vertex 38.8096 -43.1024 6
    endloop
  endfacet
  facet normal -0.743145 0.669131 0
    outer loop
      vertex 38.8096 -43.1024 6
      vertex 46.923 -34.0915 0.67
      vertex 38.8096 -43.1024 0.67
    endloop
  endfacet
  facet normal 0.743145 0.669131 0
    outer loop
      vertex -46.923 -34.0915 6
      vertex -38.8096 -43.1024 6
      vertex -38.8096 -43.1024 0.67
    endloop
  endfacet
  facet normal 0.743145 0.669131 0
    outer loop
      vertex -46.923 -34.0915 0.67
      vertex -46.923 -34.0915 6
      vertex -38.8096 -43.1024 0.67
    endloop
  endfacet
  facet normal 0.587785 0.809017 0
    outer loop
      vertex -29 -50.2295 6
      vertex -29 -50.2295 0.67
      vertex -38.8096 -43.1024 6
    endloop
  endfacet
  facet normal 0.587785 0.809017 0
    outer loop
      vertex -38.8096 -43.1024 6
      vertex -29 -50.2295 0.67
      vertex -38.8096 -43.1024 0.67
    endloop
  endfacet
  facet normal 0.406737 0.913545 0
    outer loop
      vertex -17.923 -55.1613 6
      vertex -17.923 -55.1613 0.67
      vertex -29 -50.2295 6
    endloop
  endfacet
  facet normal 0.406737 0.913545 0
    outer loop
      vertex -29 -50.2295 6
      vertex -17.923 -55.1613 0.67
      vertex -29 -50.2295 0.67
    endloop
  endfacet
  facet normal 0.207912 0.978148 0
    outer loop
      vertex -6.06265 -57.6823 6
      vertex -6.06265 -57.6823 0.67
      vertex -17.923 -55.1613 6
    endloop
  endfacet
  facet normal 0.207912 0.978148 0
    outer loop
      vertex -17.923 -55.1613 6
      vertex -6.06265 -57.6823 0.67
      vertex -17.923 -55.1613 0.67
    endloop
  endfacet
  facet normal 0 1 0
    outer loop
      vertex 6.06265 -57.6823 6
      vertex 6.06265 -57.6823 0.67
      vertex -6.06265 -57.6823 6
    endloop
  endfacet
  facet normal 0 1 0
    outer loop
      vertex -6.06265 -57.6823 6
      vertex 6.06265 -57.6823 0.67
      vertex -6.06265 -57.6823 0.67
    endloop
  endfacet
  facet normal -0.207912 0.978148 0
    outer loop
      vertex 17.923 -55.1613 6
      vertex 17.923 -55.1613 0.67
      vertex 6.06265 -57.6823 6
    endloop
  endfacet
  facet normal -0.207912 0.978148 0
    outer loop
      vertex 6.06265 -57.6823 6
      vertex 17.923 -55.1613 0.67
      vertex 6.06265 -57.6823 0.67
    endloop
  endfacet
  facet normal -0.406737 0.913545 0
    outer loop
      vertex 29 -50.2295 6
      vertex 29 -50.2295 0.67
      vertex 17.923 -55.1613 6
    endloop
  endfacet
  facet normal -0.406737 0.913545 0
    outer loop
      vertex 17.923 -55.1613 6
      vertex 29 -50.2295 0.67
      vertex 17.923 -55.1613 0.67
    endloop
  endfacet
  facet normal -0.587785 0.809017 0
    outer loop
      vertex 38.8096 -43.1024 6
      vertex 38.8096 -43.1024 0.67
      vertex 29 -50.2295 6
    endloop
  endfacet
  facet normal -0.587785 0.809017 0
    outer loop
      vertex 29 -50.2295 6
      vertex 38.8096 -43.1024 0.67
      vertex 29 -50.2295 0.67
    endloop
  endfacet
  facet normal -0.587785 -0.809017 0
    outer loop
      vertex 38.8096 43.1024 0.67
      vertex 38.8096 43.1024 6
      vertex 29 50.2295 6
    endloop
  endfacet
  facet normal -0.587785 -0.809017 0
    outer loop
      vertex 29 50.2295 0.67
      vertex 38.8096 43.1024 0.67
      vertex 29 50.2295 6
    endloop
  endfacet
  facet normal -0.406737 -0.913545 0
    outer loop
      vertex 29 50.2295 0.67
      vertex 29 50.2295 6
      vertex 17.923 55.1613 6
    endloop
  endfacet
  facet normal -0.406737 -0.913545 0
    outer loop
      vertex 17.923 55.1613 0.67
      vertex 29 50.2295 0.67
      vertex 17.923 55.1613 6
    endloop
  endfacet
  facet normal -0.207912 -0.978148 0
    outer loop
      vertex 17.923 55.1613 0.67
      vertex 17.923 55.1613 6
      vertex 6.06265 57.6823 6
    endloop
  endfacet
  facet normal -0.207912 -0.978148 0
    outer loop
      vertex 6.06265 57.6823 0.67
      vertex 17.923 55.1613 0.67
      vertex 6.06265 57.6823 6
    endloop
  endfacet
  facet normal 0 -1 0
    outer loop
      vertex 6.06265 57.6823 0.67
      vertex 6.06265 57.6823 6
      vertex -6.06265 57.6823 6
    endloop
  endfacet
  facet normal 0 -1 0
    outer loop
      vertex -6.06265 57.6823 0.67
      vertex 6.06265 57.6823 0.67
      vertex -6.06265 57.6823 6
    endloop
  endfacet
  facet normal 0.207912 -0.978148 0
    outer loop
      vertex -6.06265 57.6823 0.67
      vertex -6.06265 57.6823 6
      vertex -17.923 55.1613 6
    endloop
  endfacet
  facet normal 0.207912 -0.978148 0
    outer loop
      vertex -17.923 55.1613 0.67
      vertex -6.06265 57.6823 0.67
      vertex -17.923 55.1613 6
    endloop
  endfacet
  facet normal 0.406737 -0.913545 0
    outer loop
      vertex -17.923 55.1613 0.67
      vertex -17.923 55.1613 6
      vertex -29 50.2295 6
    endloop
  endfacet
  facet normal 0.406737 -0.913545 0
    outer loop
      vertex -29 50.2295 0.67
      vertex -17.923 55.1613 0.67
      vertex -29 50.2295 6
    endloop
  endfacet
  facet normal 0.587785 -0.809017 0
    outer loop
      vertex -29 50.2295 0.67
      vertex -29 50.2295 6
      vertex -38.8096 43.1024 6
    endloop
  endfacet
  facet normal 0.587785 -0.809017 0
    outer loop
      vertex -38.8096 43.1024 0.67
      vertex -29 50.2295 0.67
      vertex -38.8096 43.1024 6
    endloop
  endfacet
endsolid OpenSCAD_Model
