solid OpenSCAD_Model
  facet normal -1 0 0
    outer loop
      vertex -25 -5.5 0
      vertex -25 -5.5 2
      vertex -25 28.5 0
    endloop
  endfacet
  facet normal -1 0 0
    outer loop
      vertex -25 28.5 0
      vertex -25 -5.5 2
      vertex -25 28.5 2
    endloop
  endfacet
  facet normal 0 -1 0
    outer loop
      vertex -25 -5.5 2
      vertex -25 -5.5 0
      vertex 15 -5.5 0
    endloop
  endfacet
  facet normal 0 -1 0
    outer loop
      vertex 15 -5.5 2
      vertex -25 -5.5 2
      vertex 15 -5.5 0
    endloop
  endfacet
  facet normal 0 0 -1
    outer loop
      vertex -25 -5.5 0
      vertex -25 28.5 0
      vertex 15 -5.5 0
    endloop
  endfacet
  facet normal 0 0 -1
    outer loop
      vertex 15 -5.5 0
      vertex -25 28.5 0
      vertex 15 28.5 0
    endloop
  endfacet
  facet normal 0 1 0
    outer loop
      vertex -25 28.5 0
      vertex -25 28.5 2
      vertex 15 28.5 0
    endloop
  endfacet
  facet normal 0 1 0
    outer loop
      vertex 15 28.5 0
      vertex -25 28.5 2
      vertex 15 28.5 2
    endloop
  endfacet
  facet normal 0 0 1
    outer loop
      vertex -21.95 27.66 2
      vertex 15 28.5 2
      vertex -25 28.5 2
    endloop
  endfacet
  facet normal 0 0 1
    outer loop
      vertex 11.3 5.7 2
      vertex 0 5.7 2
      vertex 15 -5.5 2
    endloop
  endfacet
  facet normal 0 0 1
    outer loop
      vertex -12.15 27.66 2
      vertex 15 28.5 2
      vertex -21.95 27.66 2
    endloop
  endfacet
  facet normal 0 0 1
    outer loop
      vertex 0 22.2 2
      vertex 15 28.5 2
      vertex -12.15 27.66 2
    endloop
  endfacet
  facet normal 0 0 1
    outer loop
      vertex -25 -5.5 2
      vertex 15 -5.5 2
      vertex -12.15 -4.7 2
    endloop
  endfacet
  facet normal 0 0 1
    outer loop
      vertex -25 -5.5 2
      vertex -21.95 -4.7 2
      vertex -25 28.5 2
    endloop
  endfacet
  facet normal 0 0 1
    outer loop
      vertex -25 -5.5 2
      vertex -12.15 -4.7 2
      vertex -21.95 -4.7 2
    endloop
  endfacet
  facet normal 0 0 1
    outer loop
      vertex 11.3 22.2 2
      vertex 15 28.5 2
      vertex 0 22.2 2
    endloop
  endfacet
  facet normal 0 0 1
    outer loop
      vertex 15 -5.5 2
      vertex 15 28.5 2
      vertex 11.3 22.2 2
    endloop
  endfacet
  facet normal 0 0 1
    outer loop
      vertex 15 -5.5 2
      vertex 11.3 22.2 2
      vertex 11.3 5.7 2
    endloop
  endfacet
  facet normal 0 0 1
    outer loop
      vertex -12.15 27.66 2
      vertex -12.15 -4.7 2
      vertex 0 5.7 2
    endloop
  endfacet
  facet normal 0 0 1
    outer loop
      vertex -12.15 -4.7 2
      vertex 15 -5.5 2
      vertex 0 5.7 2
    endloop
  endfacet
  facet normal 0 0 1
    outer loop
      vertex 0 5.7 2
      vertex 0 22.2 2
      vertex -12.15 27.66 2
    endloop
  endfacet
  facet normal 0 0 1
    outer loop
      vertex -21.95 -4.7 2
      vertex -21.95 27.66 2
      vertex -25 28.5 2
    endloop
  endfacet
  facet normal 1 0 0
    outer loop
      vertex 15 -5.5 2
      vertex 15 -5.5 0
      vertex 15 28.5 0
    endloop
  endfacet
  facet normal 1 0 0
    outer loop
      vertex 15 28.5 2
      vertex 15 -5.5 2
      vertex 15 28.5 0
    endloop
  endfacet
  facet normal 0 1 0
    outer loop
      vertex -21.95 27.66 2
      vertex -21.95 27.66 16.21
      vertex -12.15 27.66 2
    endloop
  endfacet
  facet normal 0 1 0
    outer loop
      vertex -12.15 27.66 2
      vertex -21.95 27.66 16.21
      vertex -12.15 27.66 16.21
    endloop
  endfacet
  facet normal -1 0 0
    outer loop
      vertex -21.95 22.96 5
      vertex -21.95 27.66 2
      vertex -21.95 0 5
    endloop
  endfacet
  facet normal -1 0 0
    outer loop
      vertex -21.95 -4.7 2
      vertex -21.95 -4.7 16.21
      vertex -21.95 0 5
    endloop
  endfacet
  facet normal -1 0 0
    outer loop
      vertex -21.95 -4.7 2
      vertex -21.95 0 5
      vertex -21.95 27.66 2
    endloop
  endfacet
  facet normal -1 0 0
    outer loop
      vertex -21.95 27.66 2
      vertex -21.95 22.96 5
      vertex -21.95 22.96 16.21
    endloop
  endfacet
  facet normal -1 0 0
    outer loop
      vertex -21.95 27.66 2
      vertex -21.95 22.96 16.21
      vertex -21.95 27.66 16.21
    endloop
  endfacet
  facet normal -1 0 0
    outer loop
      vertex -21.95 0 5
      vertex -21.95 -4.7 16.21
      vertex -21.95 0 16.21
    endloop
  endfacet
  facet normal 0 -1 0
    outer loop
      vertex -21.95 -4.7 16.21
      vertex -21.95 -4.7 2
      vertex -12.15 -4.7 2
    endloop
  endfacet
  facet normal 0 -1 0
    outer loop
      vertex -12.15 -4.7 16.21
      vertex -21.95 -4.7 16.21
      vertex -12.15 -4.7 2
    endloop
  endfacet
  facet normal 1 0 0
    outer loop
      vertex -12.15 0 5
      vertex -12.15 -4.7 2
      vertex -12.15 27.66 2
    endloop
  endfacet
  facet normal 1 0 0
    outer loop
      vertex -12.15 0 5
      vertex -12.15 0 16.21
      vertex -12.15 -4.7 16.21
    endloop
  endfacet
  facet normal 1 0 0
    outer loop
      vertex -12.15 27.66 16.21
      vertex -12.15 22.96 16.21
      vertex -12.15 27.66 2
    endloop
  endfacet
  facet normal 1 0 0
    outer loop
      vertex -12.15 22.96 16.21
      vertex -12.15 22.96 5
      vertex -12.15 27.66 2
    endloop
  endfacet
  facet normal 1 0 0
    outer loop
      vertex -12.15 -4.7 16.21
      vertex -12.15 -4.7 2
      vertex -12.15 0 5
    endloop
  endfacet
  facet normal 1 0 0
    outer loop
      vertex -12.15 22.96 5
      vertex -12.15 0 5
      vertex -12.15 27.66 2
    endloop
  endfacet
  facet normal -1 0 0
    outer loop
      vertex 0 5.7 2
      vertex 0 5.7 7.695
      vertex 0 22.2 2
    endloop
  endfacet
  facet normal -1 0 0
    outer loop
      vertex 0 22.2 2
      vertex 0 5.7 7.695
      vertex 0 22.2 7.695
    endloop
  endfacet
  facet normal 0 1 0
    outer loop
      vertex 0 22.2 2
      vertex 0 22.2 7.695
      vertex 11.3 22.2 2
    endloop
  endfacet
  facet normal 0 1 0
    outer loop
      vertex 11.3 22.2 2
      vertex 0 22.2 7.695
      vertex 7 22.2 7.695
    endloop
  endfacet
  facet normal 0 1 0
    outer loop
      vertex 11.3 22.2 2
      vertex 7 22.2 7.695
      vertex 7 22.2 13.19
    endloop
  endfacet
  facet normal 0 1 0
    outer loop
      vertex 11.3 22.2 2
      vertex 7 22.2 13.19
      vertex 11.3 22.2 13.19
    endloop
  endfacet
  facet normal 0 -1 0
    outer loop
      vertex 0 5.7 7.695
      vertex 0 5.7 2
      vertex 11.3 5.7 2
    endloop
  endfacet
  facet normal 0 -1 0
    outer loop
      vertex 7 5.7 7.695
      vertex 0 5.7 7.695
      vertex 11.3 5.7 2
    endloop
  endfacet
  facet normal 0 -1 0
    outer loop
      vertex 11.3 5.7 13.19
      vertex 7 5.7 7.695
      vertex 11.3 5.7 2
    endloop
  endfacet
  facet normal 0 -1 0
    outer loop
      vertex 7 5.7 13.19
      vertex 7 5.7 7.695
      vertex 11.3 5.7 13.19
    endloop
  endfacet
  facet normal 1 0 0
    outer loop
      vertex 11.3 5.7 13.19
      vertex 11.3 5.7 2
      vertex 11.3 22.2 2
    endloop
  endfacet
  facet normal 1 0 0
    outer loop
      vertex 11.3 22.2 13.19
      vertex 11.3 5.7 13.19
      vertex 11.3 22.2 2
    endloop
  endfacet
  facet normal 0 0 1
    outer loop
      vertex -21.95 27.66 16.21
      vertex -21.95 22.96 16.21
      vertex -12.15 22.96 16.21
    endloop
  endfacet
  facet normal 0 0 1
    outer loop
      vertex -12.15 27.66 16.21
      vertex -21.95 27.66 16.21
      vertex -12.15 22.96 16.21
    endloop
  endfacet
  facet normal 0 -1 0
    outer loop
      vertex -12.15 22.96 5
      vertex -12.15 22.96 16.21
      vertex -21.95 22.96 16.21
    endloop
  endfacet
  facet normal 0 -1 0
    outer loop
      vertex -21.95 22.96 5
      vertex -12.15 22.96 5
      vertex -21.95 22.96 16.21
    endloop
  endfacet
  facet normal 0 0 1
    outer loop
      vertex -12.15 0 5
      vertex -12.15 22.96 5
      vertex -21.95 22.96 5
    endloop
  endfacet
  facet normal 0 0 1
    outer loop
      vertex -21.95 0 5
      vertex -12.15 0 5
      vertex -21.95 22.96 5
    endloop
  endfacet
  facet normal 0 1 0
    outer loop
      vertex -12.15 0 16.21
      vertex -12.15 0 5
      vertex -21.95 0 16.21
    endloop
  endfacet
  facet normal 0 1 0
    outer loop
      vertex -21.95 0 16.21
      vertex -12.15 0 5
      vertex -21.95 0 5
    endloop
  endfacet
  facet normal 0 0 1
    outer loop
      vertex -21.95 0 16.21
      vertex -21.95 -4.7 16.21
      vertex -12.15 -4.7 16.21
    endloop
  endfacet
  facet normal 0 0 1
    outer loop
      vertex -12.15 0 16.21
      vertex -21.95 0 16.21
      vertex -12.15 -4.7 16.21
    endloop
  endfacet
  facet normal 0 0 1
    outer loop
      vertex 7 5.7 7.695
      vertex 7 22.2 7.695
      vertex 0 22.2 7.695
    endloop
  endfacet
  facet normal 0 0 1
    outer loop
      vertex 0 5.7 7.695
      vertex 7 5.7 7.695
      vertex 0 22.2 7.695
    endloop
  endfacet
  facet normal 0 0 1
    outer loop
      vertex 7 22.2 13.19
      vertex 7 5.7 13.19
      vertex 11.3 5.7 13.19
    endloop
  endfacet
  facet normal 0 0 1
    outer loop
      vertex 11.3 22.2 13.19
      vertex 7 22.2 13.19
      vertex 11.3 5.7 13.19
    endloop
  endfacet
  facet normal -1 0 0
    outer loop
      vertex 7 22.2 13.19
      vertex 7 22.2 7.695
      vertex 7 5.7 13.19
    endloop
  endfacet
  facet normal -1 0 0
    outer loop
      vertex 7 5.7 13.19
      vertex 7 22.2 7.695
      vertex 7 5.7 7.695
    endloop
  endfacet
endsolid OpenSCAD_Model
